<svg id="svg" version="1.1" width="400" height="400" viewBox="0 0 400 400" xmlns="http://www.w3.org/2000/svg" xmlns:xlink="http://www.w3.org/1999/xlink" ><g id="svgg"><path id="path0" d="M374.873 121.012 C 374.943 121.569,375.180 122.025,375.400 122.025 C 375.620 122.025,375.857 121.569,375.927 121.012 C 376.017 120.291,375.865 120.000,375.400 120.000 C 374.935 120.000,374.783 120.291,374.873 121.012 M375.779 124.510 C 375.461 125.339,375.687 126.420,376.200 126.521 C 376.758 126.631,376.960 124.800,376.447 124.287 C 376.153 123.993,375.952 124.060,375.779 124.510 M376.400 129.767 C 376.400 130.439,376.619 130.800,377.028 130.800 C 377.445 130.800,377.613 130.508,377.528 129.931 C 377.339 128.651,376.400 128.514,376.400 129.767 " stroke="none" fill="#550000" fill-rule="evenodd"></path><path id="path1" d="M114.600 71.200 C 114.443 71.453,109.604 71.600,101.400 71.600 C 93.196 71.600,88.357 71.747,88.200 72.000 C 88.051 72.241,85.270 72.400,81.200 72.400 C 77.130 72.400,74.349 72.559,74.200 72.800 C 74.059 73.029,72.004 73.200,69.400 73.200 C 66.796 73.200,64.741 73.371,64.600 73.600 C 64.464 73.820,62.934 74.000,61.200 74.000 C 59.466 74.000,57.936 74.180,57.800 74.400 C 57.664 74.620,56.843 74.800,55.976 74.800 C 55.109 74.800,54.400 74.980,54.400 75.200 C 54.400 75.420,53.986 75.600,53.480 75.600 C 52.974 75.600,52.389 75.763,52.180 75.962 C 51.844 76.283,50.262 77.221,47.796 78.563 C 45.701 79.703,39.600 84.988,39.600 85.664 C 39.600 85.844,39.341 86.308,39.025 86.695 C 35.993 90.408,34.800 92.012,34.800 92.373 C 34.800 92.608,34.620 92.800,34.400 92.800 C 34.180 92.800,34.000 93.160,34.000 93.600 C 34.000 94.040,33.820 94.400,33.600 94.400 C 33.380 94.400,33.200 94.749,33.200 95.176 C 33.200 95.603,33.020 96.064,32.800 96.200 C 32.580 96.336,32.400 96.797,32.400 97.224 C 32.400 97.651,32.220 98.000,32.000 98.000 C 31.780 98.000,31.600 98.529,31.600 99.176 C 31.600 99.823,31.420 100.464,31.200 100.600 C 30.980 100.736,30.800 101.276,30.800 101.800 C 30.800 102.324,30.620 102.864,30.400 103.000 C 30.180 103.136,30.000 103.867,30.000 104.624 C 30.000 105.381,29.820 106.000,29.600 106.000 C 29.380 106.000,29.200 106.441,29.200 106.980 C 29.200 107.520,28.914 109.005,28.565 110.280 C 27.380 114.612,27.219 115.398,27.210 116.900 C 27.204 117.725,27.020 118.400,26.800 118.400 C 26.580 118.400,26.400 119.199,26.400 120.176 C 26.400 121.153,26.220 122.064,26.000 122.200 C 25.780 122.336,25.600 123.337,25.600 124.424 C 25.600 125.511,25.420 126.400,25.200 126.400 C 24.980 126.400,24.800 127.300,24.800 128.400 C 24.800 129.500,24.620 130.400,24.400 130.400 C 24.174 130.400,24.000 131.533,24.000 133.000 C 24.000 134.467,23.826 135.600,23.600 135.600 C 23.367 135.600,23.200 136.925,23.200 138.776 C 23.200 140.523,23.020 142.064,22.800 142.200 C 22.577 142.338,22.400 144.196,22.400 146.400 C 22.400 148.604,22.223 150.462,22.000 150.600 C 21.766 150.745,21.600 153.063,21.600 156.200 C 21.600 159.337,21.434 161.655,21.200 161.800 C 20.953 161.953,20.800 165.404,20.800 170.824 C 20.800 176.098,20.648 179.600,20.420 179.600 C 20.188 179.600,20.029 184.853,20.010 193.071 C 19.994 200.479,19.821 206.734,19.625 206.971 C 19.104 207.600,19.064 230.269,19.584 230.590 C 19.844 230.751,20.000 233.230,20.000 237.200 C 20.000 241.004,20.161 243.652,20.400 243.800 C 20.625 243.939,20.800 245.844,20.800 248.144 C 20.800 250.397,20.966 252.411,21.170 252.620 C 21.373 252.829,21.639 254.350,21.760 256.000 C 22.199 262.007,22.475 264.208,22.834 264.580 C 23.035 264.789,23.200 265.903,23.200 267.056 C 23.200 268.209,23.380 269.264,23.600 269.400 C 23.820 269.536,24.000 270.366,24.000 271.243 C 24.000 272.121,24.285 273.392,24.634 274.067 C 24.983 274.741,25.187 275.605,25.088 275.987 C 24.988 276.368,25.238 277.112,25.644 277.640 C 26.050 278.168,26.386 279.174,26.391 279.876 C 26.396 280.578,26.580 281.264,26.800 281.400 C 27.020 281.536,27.200 282.153,27.200 282.771 C 27.200 283.907,29.278 290.814,30.005 292.095 C 30.222 292.477,30.400 293.049,30.400 293.366 C 30.400 293.683,30.625 294.188,30.900 294.487 C 31.682 295.337,32.400 296.730,32.400 297.395 C 32.400 297.728,32.580 298.000,32.800 298.000 C 33.020 298.000,33.200 298.242,33.200 298.539 C 33.200 299.302,34.307 301.424,35.008 302.007 C 35.334 302.277,35.600 302.736,35.600 303.026 C 35.600 303.317,35.915 303.790,36.300 304.077 C 36.685 304.365,37.270 305.136,37.600 305.791 C 38.263 307.107,44.897 313.861,46.430 314.782 C 51.925 318.079,56.796 320.000,59.663 320.000 C 60.728 320.000,61.600 320.156,61.600 320.346 C 61.600 320.536,63.163 320.726,65.074 320.768 C 66.985 320.810,68.740 320.968,68.974 321.119 C 69.990 321.773,89.792 322.712,108.800 323.007 C 117.270 323.139,124.703 323.409,125.319 323.609 C 126.802 324.090,270.156 323.762,290.800 323.231 C 323.032 322.401,342.465 320.779,346.741 318.560 C 347.292 318.275,347.882 318.127,348.051 318.232 C 348.221 318.337,348.555 318.057,348.794 317.611 C 349.033 317.165,349.456 316.800,349.734 316.800 C 350.459 316.800,352.393 315.856,352.397 315.500 C 352.399 315.335,352.670 315.200,353.000 315.200 C 353.330 315.200,353.600 315.020,353.600 314.800 C 353.600 314.580,353.833 314.400,354.118 314.400 C 354.585 314.400,362.000 307.026,362.000 306.561 C 362.000 306.352,362.577 305.609,363.700 304.371 C 364.085 303.947,364.400 303.448,364.400 303.262 C 364.400 303.076,364.760 302.598,365.200 302.200 C 365.640 301.802,366.000 301.155,366.000 300.762 C 366.000 300.369,366.180 299.936,366.400 299.800 C 366.620 299.664,366.800 299.203,366.800 298.776 C 366.800 298.349,366.980 298.000,367.200 298.000 C 367.420 298.000,367.600 297.640,367.600 297.200 C 367.600 296.760,367.780 296.400,368.000 296.400 C 368.220 296.400,368.400 296.203,368.400 295.962 C 368.400 295.721,368.738 295.046,369.152 294.462 C 369.566 293.878,370.310 292.140,370.805 290.600 C 371.300 289.060,371.850 287.440,372.027 287.000 C 372.205 286.560,372.804 284.337,373.360 282.060 C 373.915 279.782,374.520 277.712,374.705 277.460 C 374.890 277.207,375.095 276.370,375.161 275.600 C 375.227 274.830,375.442 273.897,375.640 273.526 C 375.838 273.156,376.000 272.121,376.000 271.226 C 376.000 270.332,376.180 269.600,376.400 269.600 C 376.622 269.600,376.800 268.533,376.800 267.200 C 376.800 265.867,376.978 264.800,377.200 264.800 C 377.425 264.800,377.600 263.675,377.600 262.224 C 377.600 260.807,377.780 259.536,378.000 259.400 C 378.220 259.264,378.400 257.824,378.400 256.200 C 378.400 254.576,378.580 253.136,378.800 253.000 C 379.023 252.862,379.200 251.004,379.200 248.800 C 379.200 246.596,379.377 244.738,379.600 244.600 C 379.841 244.451,380.000 241.670,380.000 237.600 C 380.000 233.366,380.155 230.752,380.415 230.591 C 380.936 230.269,380.899 206.800,380.377 206.800 C 380.179 206.800,379.929 200.783,379.816 193.300 C 379.479 171.046,379.190 162.230,378.784 161.824 C 378.573 161.613,378.400 158.967,378.400 155.944 C 378.400 152.711,378.235 150.345,378.000 150.200 C 377.779 150.064,377.600 148.270,377.600 146.200 C 377.600 144.130,377.421 142.336,377.200 142.200 C 376.980 142.064,376.800 140.624,376.800 139.000 C 376.800 137.376,376.620 135.936,376.400 135.800 C 376.180 135.664,376.000 134.393,376.000 132.976 C 376.000 131.559,375.854 130.400,375.675 130.400 C 375.496 130.400,375.151 128.735,374.908 126.700 C 374.666 124.665,374.292 122.190,374.078 121.200 C 373.225 117.264,372.702 114.927,372.331 113.400 C 372.117 112.520,371.845 111.213,371.727 110.496 C 371.608 109.779,371.351 109.094,371.156 108.973 C 370.960 108.852,370.800 108.234,370.800 107.600 C 370.800 106.966,370.620 106.336,370.400 106.200 C 370.180 106.064,370.000 105.571,370.000 105.105 C 370.000 104.204,369.335 101.861,368.751 100.705 C 368.558 100.323,368.400 99.736,368.400 99.400 C 368.400 99.064,368.220 98.432,368.000 97.995 C 367.780 97.558,367.420 96.842,367.200 96.405 C 366.980 95.968,366.800 95.338,366.800 95.005 C 366.800 94.672,366.664 94.400,366.498 94.400 C 366.331 94.400,365.942 93.815,365.633 93.100 C 365.323 92.385,364.379 90.965,363.535 89.944 C 362.691 88.924,362.000 87.929,362.000 87.733 C 362.000 87.537,361.640 87.117,361.200 86.800 C 360.760 86.483,360.400 86.011,360.400 85.750 C 360.400 84.883,354.899 80.066,352.200 78.569 C 349.262 76.940,348.153 76.280,347.820 75.962 C 347.611 75.763,347.026 75.600,346.520 75.600 C 346.014 75.600,345.600 75.420,345.600 75.200 C 345.600 74.980,344.880 74.800,344.000 74.800 C 343.120 74.800,342.400 74.620,342.400 74.400 C 342.400 74.165,341.008 74.000,339.024 74.000 C 337.167 74.000,335.536 73.820,335.400 73.600 C 335.258 73.371,333.196 73.200,330.576 73.200 C 327.792 73.200,326.000 73.043,326.000 72.800 C 326.000 72.549,323.408 72.400,319.024 72.400 C 314.804 72.400,311.950 72.242,311.800 72.000 C 311.643 71.747,306.804 71.600,298.600 71.600 C 290.396 71.600,285.557 71.453,285.400 71.200 C 285.236 70.935,256.337 70.800,200.000 70.800 C 143.663 70.800,114.764 70.935,114.600 71.200 M167.528 132.665 C 169.218 133.690,173.716 136.570,177.524 139.065 C 181.332 141.559,184.617 143.600,184.824 143.600 C 185.031 143.600,185.200 143.780,185.200 144.000 C 185.200 144.220,185.436 144.400,185.725 144.400 C 186.013 144.400,186.636 144.760,187.108 145.200 C 187.580 145.640,188.058 146.000,188.170 146.000 C 188.282 146.000,190.675 147.500,193.487 149.333 C 196.299 151.166,199.858 153.461,201.395 154.433 C 202.932 155.405,206.581 157.775,209.504 159.700 C 212.426 161.625,214.993 163.200,215.209 163.200 C 215.424 163.200,215.600 163.380,215.600 163.600 C 215.600 163.820,215.774 164.000,215.986 164.000 C 216.198 164.000,219.792 166.251,223.972 169.002 C 228.152 171.753,232.028 174.212,232.586 174.466 C 233.144 174.720,233.600 175.080,233.600 175.264 C 233.600 175.449,233.836 175.600,234.125 175.600 C 234.413 175.600,235.036 175.960,235.508 176.400 C 235.980 176.840,236.465 177.200,236.584 177.200 C 236.704 177.200,238.651 178.425,240.911 179.923 C 243.171 181.420,245.286 182.764,245.610 182.909 C 245.935 183.053,250.040 185.698,254.734 188.786 C 259.428 191.874,263.350 194.400,263.451 194.400 C 263.551 194.400,264.020 194.760,264.492 195.200 C 264.964 195.640,265.587 196.000,265.875 196.000 C 267.942 196.000,263.749 199.644,258.280 202.600 C 257.873 202.820,254.809 204.787,251.470 206.971 C 248.132 209.154,243.960 211.861,242.200 212.985 C 240.440 214.109,236.799 216.463,234.109 218.215 C 231.419 219.967,228.608 221.760,227.862 222.200 C 226.575 222.960,220.525 226.874,205.756 236.500 C 202.127 238.865,199.070 240.800,198.962 240.800 C 198.855 240.800,198.549 240.982,198.283 241.205 C 198.017 241.429,194.020 244.033,189.400 246.994 C 184.780 249.954,178.308 254.137,175.018 256.288 C 167.718 261.062,164.879 262.800,164.380 262.800 C 164.142 262.800,164.000 238.214,164.000 196.800 C 164.000 160.500,164.103 130.800,164.228 130.800 C 164.353 130.800,165.838 131.639,167.528 132.665 " stroke="none" fill="#e04e41" fill-rule="evenodd"></path><path id="path2" d="M36.954 88.540 C 36.709 88.821,36.282 89.489,36.005 90.025 C 35.728 90.561,35.662 90.820,35.857 90.600 C 37.718 88.503,38.089 88.002,37.770 88.015 C 37.566 88.024,37.199 88.260,36.954 88.540 M362.824 89.100 C 363.354 89.705,363.926 90.371,364.094 90.580 C 364.287 90.820,364.400 90.820,364.400 90.580 C 364.399 90.088,362.606 88.000,362.184 88.000 C 362.006 88.000,362.294 88.495,362.824 89.100 M25.000 117.200 C 24.840 117.458,24.890 117.850,25.110 118.070 C 25.376 118.336,25.606 118.313,25.800 118.000 C 25.960 117.742,25.910 117.350,25.690 117.130 C 25.424 116.864,25.194 116.887,25.000 117.200 M374.200 117.200 C 374.040 117.458,374.090 117.850,374.310 118.070 C 374.576 118.336,374.806 118.313,375.000 118.000 C 375.160 117.742,375.110 117.350,374.890 117.130 C 374.624 116.864,374.394 116.887,374.200 117.200 M24.417 120.000 C 24.029 121.018,24.035 122.125,24.426 121.734 C 24.673 121.487,24.789 120.951,24.684 120.542 C 24.579 120.134,24.459 119.890,24.417 120.000 M23.400 124.800 C 23.114 125.262,23.483 126.000,23.999 126.000 C 24.192 126.000,24.323 125.640,24.290 125.200 C 24.225 124.341,23.801 124.150,23.400 124.800 M22.629 129.469 C 22.489 129.835,22.536 130.296,22.733 130.493 C 22.946 130.706,23.181 130.516,23.309 130.027 C 23.572 129.020,22.986 128.539,22.629 129.469 M377.388 135.220 C 377.007 135.835,377.528 136.232,378.042 135.718 C 378.329 135.431,378.336 135.207,378.062 135.039 C 377.839 134.900,377.535 134.982,377.388 135.220 M19.492 205.842 C 19.331 206.002,19.200 206.409,19.200 206.747 C 19.200 207.197,19.318 207.242,19.645 206.915 C 19.890 206.670,20.021 206.263,19.937 206.010 C 19.852 205.757,19.652 205.681,19.492 205.842 M29.246 291.051 C 29.221 291.519,29.515 292.149,29.900 292.451 C 30.509 292.928,30.540 292.922,30.143 292.400 C 29.892 292.070,29.598 291.440,29.489 291.000 C 29.303 290.240,29.290 290.243,29.246 291.051 M34.000 301.367 C 34.000 301.788,35.205 302.928,35.421 302.712 C 35.522 302.611,35.244 302.202,34.802 301.802 C 34.361 301.403,34.000 301.207,34.000 301.367 M36.365 304.751 C 37.483 306.321,38.056 306.677,37.472 305.440 C 37.222 304.911,36.675 304.265,36.256 304.003 C 35.576 303.578,35.587 303.659,36.365 304.751 M50.877 317.492 C 51.370 318.086,53.984 319.291,54.386 319.109 C 54.519 319.049,53.681 318.536,52.523 317.969 C 51.365 317.402,50.624 317.188,50.877 317.492 M92.341 322.901 C 92.543 323.103,93.133 323.201,93.654 323.119 C 94.455 322.993,94.398 322.937,93.287 322.752 C 92.493 322.621,92.119 322.679,92.341 322.901 M306.400 322.800 L 304.600 323.080 306.276 323.140 C 307.198 323.173,308.064 323.020,308.200 322.800 C 308.336 322.580,308.392 322.427,308.324 322.460 C 308.256 322.493,307.390 322.646,306.400 322.800 M96.305 323.083 C 96.802 323.179,97.522 323.175,97.905 323.075 C 98.287 322.975,97.880 322.896,97.000 322.901 C 96.120 322.905,95.807 322.987,96.305 323.083 " stroke="none" fill="#ff0000" fill-rule="evenodd"></path><path id="path3" d="M164.000 196.800 C 164.000 238.214,164.142 262.800,164.380 262.800 C 164.879 262.800,167.718 261.062,175.018 256.288 C 178.308 254.137,184.780 249.954,189.400 246.994 C 194.020 244.033,198.017 241.429,198.283 241.205 C 198.549 240.982,198.855 240.800,198.962 240.800 C 199.070 240.800,202.127 238.865,205.756 236.500 C 220.525 226.874,226.575 222.960,227.862 222.200 C 228.608 221.760,231.419 219.967,234.109 218.215 C 236.799 216.463,240.440 214.109,242.200 212.985 C 243.960 211.861,248.132 209.154,251.470 206.971 C 254.809 204.787,257.873 202.820,258.280 202.600 C 263.749 199.644,267.942 196.000,265.875 196.000 C 265.587 196.000,264.964 195.640,264.492 195.200 C 264.020 194.760,263.551 194.400,263.451 194.400 C 263.350 194.400,259.428 191.874,254.734 188.786 C 250.040 185.698,245.935 183.053,245.610 182.909 C 245.286 182.764,243.171 181.420,240.911 179.923 C 238.651 178.425,236.622 177.200,236.401 177.200 C 236.181 177.200,236.000 177.050,236.000 176.868 C 236.000 176.685,235.505 176.280,234.900 175.968 C 234.295 175.656,233.710 175.302,233.600 175.181 C 233.041 174.567,229.600 172.819,229.600 173.150 C 229.600 173.360,230.140 173.772,230.800 174.064 C 231.460 174.356,232.000 174.731,232.000 174.898 C 232.000 175.064,232.177 175.200,232.394 175.200 C 232.610 175.200,235.715 177.119,239.294 179.464 C 242.872 181.809,246.430 184.127,247.200 184.615 C 247.970 185.103,250.994 187.054,253.921 188.951 C 256.847 190.848,259.412 192.400,259.621 192.400 C 259.829 192.400,260.000 192.558,260.000 192.751 C 260.000 192.945,260.540 193.327,261.200 193.600 C 261.860 193.873,262.400 194.227,262.400 194.386 C 262.400 194.544,263.210 195.091,264.200 195.600 C 266.237 196.648,266.378 196.970,265.100 197.653 C 264.146 198.163,260.167 200.729,249.888 207.464 C 246.417 209.739,243.402 211.600,243.188 211.600 C 242.975 211.600,242.800 211.780,242.800 212.000 C 242.800 212.220,242.627 212.400,242.416 212.400 C 242.111 212.400,226.561 222.307,225.000 223.495 C 224.780 223.663,224.105 224.055,223.500 224.368 C 222.895 224.680,222.400 225.085,222.400 225.268 C 222.400 225.450,222.214 225.600,221.987 225.600 C 221.759 225.600,219.695 226.860,217.400 228.400 C 215.105 229.940,213.136 231.200,213.026 231.200 C 212.915 231.200,211.784 231.893,210.513 232.739 C 202.247 238.240,195.120 242.800,194.788 242.800 C 194.575 242.800,194.400 242.980,194.400 243.200 C 194.400 243.420,194.164 243.600,193.875 243.600 C 193.587 243.600,192.964 243.960,192.492 244.400 C 192.020 244.840,191.538 245.200,191.422 245.200 C 191.306 245.200,188.823 246.750,185.905 248.645 C 182.987 250.540,179.790 252.605,178.800 253.235 C 177.810 253.864,176.783 254.564,176.517 254.789 C 176.251 255.015,175.931 255.200,175.806 255.200 C 175.681 255.200,173.158 256.820,170.200 258.800 C 167.242 260.780,164.726 262.400,164.611 262.400 C 164.495 262.400,164.400 232.970,164.400 197.000 C 164.400 161.030,164.478 131.600,164.574 131.600 C 164.802 131.600,175.166 138.093,178.078 140.061 C 179.331 140.907,180.464 141.600,180.595 141.600 C 180.726 141.600,181.220 141.960,181.692 142.400 C 182.164 142.840,182.787 143.200,183.075 143.200 C 183.364 143.200,183.600 143.380,183.600 143.600 C 183.600 143.820,183.836 144.000,184.125 144.000 C 184.413 144.000,185.036 144.360,185.508 144.800 C 185.980 145.240,186.456 145.600,186.564 145.600 C 186.673 145.600,190.192 147.850,194.384 150.600 C 198.576 153.350,202.100 155.600,202.214 155.600 C 202.328 155.600,204.842 157.220,207.800 159.200 C 210.758 161.180,213.364 162.800,213.589 162.800 C 213.815 162.800,214.000 162.950,214.000 163.132 C 214.000 163.315,214.495 163.720,215.100 164.032 C 215.705 164.344,219.056 166.453,222.546 168.720 C 226.037 170.986,228.977 172.756,229.081 172.652 C 229.302 172.431,216.532 164.000,215.976 164.000 C 215.769 164.000,215.600 163.820,215.600 163.600 C 215.600 163.380,215.424 163.200,215.209 163.200 C 214.993 163.200,212.426 161.625,209.504 159.700 C 206.581 157.775,202.932 155.405,201.395 154.433 C 199.858 153.461,196.299 151.166,193.487 149.333 C 190.675 147.500,188.282 146.000,188.170 146.000 C 188.058 146.000,187.580 145.640,187.108 145.200 C 186.636 144.760,186.013 144.400,185.725 144.400 C 185.436 144.400,185.200 144.220,185.200 144.000 C 185.200 143.780,185.031 143.600,184.824 143.600 C 184.617 143.600,181.332 141.559,177.524 139.065 C 170.293 134.328,164.617 130.800,164.228 130.800 C 164.103 130.800,164.000 160.500,164.000 196.800 " stroke="none" fill="#ebb0a4" fill-rule="evenodd"></path><path id="path4" d="M164.400 197.000 C 164.400 232.970,164.495 262.400,164.611 262.400 C 164.726 262.400,167.242 260.780,170.200 258.800 C 173.158 256.820,175.681 255.200,175.806 255.200 C 175.931 255.200,176.251 255.015,176.517 254.789 C 176.783 254.564,177.810 253.864,178.800 253.235 C 179.790 252.605,182.987 250.540,185.905 248.645 C 188.823 246.750,191.306 245.200,191.422 245.200 C 191.538 245.200,192.020 244.840,192.492 244.400 C 192.964 243.960,193.587 243.600,193.875 243.600 C 194.164 243.600,194.400 243.420,194.400 243.200 C 194.400 242.980,194.575 242.800,194.788 242.800 C 195.120 242.800,202.247 238.240,210.513 232.739 C 211.784 231.893,212.915 231.200,213.026 231.200 C 213.136 231.200,215.105 229.940,217.400 228.400 C 219.695 226.860,221.759 225.600,221.987 225.600 C 222.214 225.600,222.400 225.450,222.400 225.268 C 222.400 225.085,222.895 224.680,223.500 224.368 C 224.105 224.055,224.780 223.663,225.000 223.495 C 226.561 222.307,242.111 212.400,242.416 212.400 C 242.627 212.400,242.800 212.220,242.800 212.000 C 242.800 211.780,242.975 211.600,243.188 211.600 C 243.402 211.600,246.417 209.739,249.888 207.464 C 260.167 200.729,264.146 198.163,265.100 197.653 C 266.378 196.970,266.237 196.648,264.200 195.600 C 263.210 195.091,262.400 194.544,262.400 194.386 C 262.400 194.227,261.860 193.873,261.200 193.600 C 260.540 193.327,260.000 192.945,260.000 192.751 C 260.000 192.558,259.829 192.400,259.621 192.400 C 259.412 192.400,256.847 190.848,253.921 188.951 C 250.994 187.054,247.970 185.103,247.200 184.615 C 246.430 184.127,242.872 181.809,239.294 179.464 C 235.715 177.119,232.610 175.200,232.394 175.200 C 232.177 175.200,232.000 175.020,232.000 174.800 C 232.000 174.580,231.764 174.400,231.475 174.400 C 231.187 174.400,230.564 174.040,230.092 173.600 C 229.620 173.160,229.143 172.800,229.032 172.800 C 228.921 172.800,225.988 170.955,222.515 168.699 C 219.042 166.444,215.705 164.344,215.100 164.032 C 214.495 163.720,214.000 163.315,214.000 163.132 C 214.000 162.950,213.815 162.800,213.589 162.800 C 213.364 162.800,210.758 161.180,207.800 159.200 C 204.842 157.220,202.328 155.600,202.214 155.600 C 202.100 155.600,198.576 153.350,194.384 150.600 C 190.192 147.850,186.673 145.600,186.564 145.600 C 186.456 145.600,185.980 145.240,185.508 144.800 C 185.036 144.360,184.413 144.000,184.125 144.000 C 183.836 144.000,183.600 143.820,183.600 143.600 C 183.600 143.380,183.364 143.200,183.075 143.200 C 182.787 143.200,182.164 142.840,181.692 142.400 C 181.220 141.960,180.726 141.600,180.595 141.600 C 180.464 141.600,179.331 140.907,178.078 140.061 C 175.166 138.093,164.802 131.600,164.574 131.600 C 164.478 131.600,164.400 161.030,164.400 197.000 " stroke="none" fill="#f3f1e6" fill-rule="evenodd"></path></g></svg>