<svg id="svg" version="1.1" width="400" height="400" viewBox="0 0 400 400" xmlns="http://www.w3.org/2000/svg" xmlns:xlink="http://www.w3.org/1999/xlink" ><g id="svgg"><path id="path0" d="" stroke="none" fill="#000000" fill-rule="evenodd"></path><path id="path1" d="" stroke="none" fill="#555500" fill-rule="evenodd"></path><path id="path2" d="" stroke="none" fill="#339900" fill-rule="evenodd"></path><path id="path3" d="M232.600 18.000 C 232.464 18.220,231.463 18.400,230.376 18.400 C 229.289 18.400,228.400 18.557,228.400 18.748 C 228.400 18.940,227.500 19.216,226.400 19.362 C 225.300 19.508,224.400 19.801,224.400 20.014 C 224.400 20.226,223.950 20.400,223.400 20.400 C 222.850 20.400,222.400 20.580,222.400 20.800 C 222.400 21.020,222.202 21.200,221.960 21.200 C 221.330 21.200,218.695 22.477,218.071 23.085 C 217.781 23.368,217.325 23.600,217.060 23.600 C 216.794 23.600,216.317 23.960,216.000 24.400 C 215.683 24.840,215.206 25.200,214.941 25.200 C 214.675 25.200,214.104 25.650,213.671 26.200 C 213.239 26.750,212.723 27.200,212.525 27.200 C 211.919 27.200,206.400 33.324,206.400 33.997 C 206.400 34.218,206.223 34.400,206.008 34.400 C 205.792 34.400,205.502 34.850,205.364 35.400 C 205.226 35.950,204.975 36.400,204.807 36.400 C 204.292 36.400,201.600 42.058,201.340 43.687 C 201.205 44.529,200.939 45.314,200.747 45.432 C 200.556 45.551,200.400 46.231,200.400 46.944 C 200.400 47.657,200.181 48.459,199.913 48.727 C 199.224 49.416,199.224 63.384,199.913 64.073 C 200.181 64.341,200.400 65.064,200.400 65.680 C 200.400 66.296,200.563 66.800,200.762 66.800 C 200.962 66.800,201.249 67.700,201.400 68.800 C 201.551 69.900,201.838 70.800,202.038 70.800 C 202.237 70.800,202.400 71.160,202.400 71.600 C 202.400 72.040,202.566 72.400,202.768 72.400 C 202.971 72.400,203.255 72.940,203.400 73.600 C 203.545 74.260,203.808 74.800,203.985 74.800 C 204.162 74.800,204.421 75.115,204.560 75.500 C 204.921 76.499,205.763 77.875,206.536 78.729 C 206.901 79.133,207.200 79.605,207.200 79.779 C 207.200 80.323,213.999 86.800,214.571 86.800 C 214.870 86.800,215.219 87.072,215.346 87.403 C 215.473 87.735,216.040 88.218,216.605 88.475 C 217.648 88.950,217.713 90.129,216.796 91.987 C 216.063 93.472,215.628 94.696,215.372 95.987 C 215.222 96.750,214.941 97.695,214.749 98.087 C 214.557 98.479,214.223 99.152,214.008 99.583 C 213.792 100.013,213.499 101.093,213.356 101.983 C 213.214 102.872,212.941 103.600,212.749 103.600 C 212.557 103.600,212.400 104.039,212.400 104.576 C 212.400 105.113,212.240 105.651,212.045 105.772 C 211.850 105.893,211.568 106.645,211.418 107.445 C 211.268 108.244,210.978 109.236,210.773 109.649 C 210.568 110.062,210.223 110.752,210.008 111.183 C 209.792 111.613,209.499 112.693,209.356 113.583 C 209.214 114.472,208.941 115.200,208.749 115.200 C 208.557 115.200,208.400 115.639,208.400 116.176 C 208.400 116.713,208.230 117.258,208.023 117.386 C 207.816 117.514,207.525 118.424,207.378 119.409 C 207.230 120.394,206.950 121.200,206.755 121.200 C 206.560 121.200,206.400 121.639,206.400 122.176 C 206.400 122.713,206.230 123.258,206.023 123.386 C 205.816 123.514,205.525 124.424,205.378 125.409 C 205.230 126.394,204.950 127.200,204.755 127.200 C 204.560 127.200,204.400 127.650,204.400 128.200 C 204.400 128.750,204.220 129.200,204.000 129.200 C 203.780 129.200,203.600 129.556,203.600 129.992 C 203.600 130.701,202.935 132.763,201.986 135.000 C 201.799 135.440,201.532 136.385,201.392 137.100 C 201.251 137.815,200.991 138.400,200.814 138.400 C 200.636 138.400,200.388 138.895,200.263 139.500 C 199.727 142.094,198.996 144.400,198.709 144.400 C 198.539 144.400,198.400 144.839,198.400 145.376 C 198.400 145.913,198.230 146.458,198.023 146.586 C 197.816 146.714,197.525 147.624,197.378 148.609 L 197.109 150.400 188.778 150.400 C 184.196 150.400,180.351 150.556,180.232 150.747 C 180.114 150.939,178.754 151.219,177.209 151.372 C 175.664 151.524,174.400 151.818,174.400 152.024 C 174.400 152.231,173.961 152.400,173.424 152.400 C 172.887 152.400,172.349 152.560,172.228 152.755 C 172.107 152.950,171.355 153.232,170.555 153.382 C 169.185 153.639,167.646 154.307,167.200 154.838 C 167.090 154.970,166.546 155.188,165.992 155.323 C 165.438 155.458,164.623 155.891,164.181 156.285 C 163.739 156.678,162.708 157.343,161.889 157.763 C 161.070 158.183,160.400 158.678,160.400 158.863 C 160.400 159.048,160.153 159.200,159.850 159.200 C 159.267 159.200,158.046 160.168,154.555 163.400 C 153.367 164.500,152.133 165.625,151.814 165.900 C 151.144 166.477,150.000 166.568,150.000 166.043 C 150.000 165.847,149.550 165.574,149.000 165.436 C 148.450 165.298,148.000 165.008,148.000 164.792 C 148.000 164.577,147.730 164.400,147.400 164.400 C 147.070 164.400,146.800 164.240,146.800 164.043 C 146.800 163.847,146.350 163.574,145.800 163.436 C 145.250 163.298,144.800 163.008,144.800 162.792 C 144.800 162.577,144.530 162.400,144.200 162.400 C 143.870 162.400,143.600 162.232,143.600 162.027 C 143.600 161.822,143.195 161.528,142.700 161.373 C 142.205 161.219,141.710 160.981,141.600 160.846 C 141.279 160.451,139.860 159.597,139.100 159.342 C 138.715 159.212,138.400 158.948,138.400 158.753 C 138.400 158.559,138.130 158.400,137.800 158.400 C 137.470 158.400,137.200 158.255,137.200 158.077 C 137.200 157.899,136.480 157.436,135.600 157.048 C 134.720 156.660,134.000 156.195,134.000 156.014 C 134.000 155.834,133.550 155.574,133.000 155.436 C 132.450 155.298,132.000 155.008,132.000 154.792 C 132.000 154.577,131.730 154.400,131.400 154.400 C 131.070 154.400,130.800 154.220,130.800 154.000 C 130.800 153.780,130.557 153.600,130.260 153.600 C 129.963 153.600,128.975 153.060,128.063 152.400 C 127.152 151.740,126.225 151.200,126.003 151.200 C 125.782 151.200,125.600 151.020,125.600 150.800 C 125.600 150.580,125.330 150.400,125.000 150.400 C 124.670 150.400,124.398 150.265,124.396 150.100 C 124.394 149.935,123.589 149.447,122.606 149.015 C 121.624 148.583,120.731 147.998,120.623 147.715 C 120.514 147.432,120.059 147.200,119.613 147.200 C 119.166 147.200,118.800 147.048,118.800 146.863 C 118.800 146.678,118.125 146.183,117.300 145.763 C 116.475 145.343,115.710 144.892,115.600 144.759 C 115.490 144.627,113.420 143.284,111.000 141.776 C 108.580 140.267,106.540 138.891,106.467 138.717 C 106.393 138.542,105.988 138.400,105.567 138.400 C 105.145 138.400,104.800 138.223,104.800 138.008 C 104.800 137.792,104.350 137.502,103.800 137.364 C 103.250 137.226,102.800 136.981,102.800 136.820 C 102.800 136.658,102.130 136.183,101.311 135.763 C 100.492 135.343,99.470 134.687,99.040 134.305 C 98.611 133.922,97.886 133.493,97.429 133.351 C 96.973 133.208,96.510 132.962,96.400 132.804 C 96.075 132.335,89.645 128.400,89.204 128.400 C 88.982 128.400,88.800 128.223,88.800 128.008 C 88.800 127.792,88.350 127.502,87.800 127.364 C 87.250 127.226,86.800 126.953,86.800 126.757 C 86.800 126.560,86.530 126.400,86.200 126.400 C 85.870 126.400,85.600 126.223,85.600 126.008 C 85.600 125.792,85.150 125.502,84.600 125.364 C 84.050 125.226,83.600 124.981,83.600 124.820 C 83.600 124.658,82.930 124.183,82.110 123.763 C 78.992 122.166,78.766 121.757,79.260 118.599 C 79.508 117.016,79.598 113.889,79.468 111.400 C 79.246 107.172,79.168 106.528,78.717 105.200 C 78.605 104.870,78.289 103.880,78.015 103.000 C 77.278 100.631,74.685 95.531,74.104 95.308 C 73.827 95.202,73.600 94.885,73.600 94.605 C 73.600 94.118,68.274 88.400,67.820 88.400 C 67.700 88.400,66.745 87.784,65.697 87.032 C 64.650 86.279,63.300 85.540,62.697 85.388 C 62.093 85.237,61.600 84.953,61.600 84.757 C 61.600 84.560,61.255 84.400,60.833 84.400 C 60.412 84.400,60.006 84.217,59.931 83.993 C 59.856 83.769,58.851 83.474,57.698 83.337 C 56.544 83.200,55.600 82.934,55.600 82.744 C 55.600 82.292,42.512 82.295,42.233 82.747 C 42.115 82.938,41.121 83.213,40.025 83.359 C 38.930 83.504,37.925 83.798,37.793 84.012 C 37.661 84.225,37.203 84.400,36.776 84.400 C 36.349 84.400,36.000 84.558,36.000 84.750 C 36.000 84.942,35.505 85.200,34.900 85.323 C 34.295 85.445,33.403 85.917,32.917 86.373 C 32.431 86.828,31.854 87.200,31.635 87.200 C 31.416 87.200,30.786 87.650,30.236 88.200 C 29.686 88.750,29.092 89.200,28.916 89.200 C 28.462 89.200,24.400 93.464,24.400 93.940 C 24.400 94.156,24.262 94.393,24.093 94.467 C 23.652 94.658,21.200 98.587,21.200 99.102 C 21.200 99.339,21.065 99.593,20.900 99.667 C 20.476 99.855,19.196 103.624,19.198 104.676 C 19.199 105.158,19.020 105.664,18.800 105.800 C 18.580 105.936,18.400 107.016,18.400 108.200 C 18.400 109.384,18.220 110.464,18.000 110.600 C 17.479 110.922,17.479 114.678,18.000 115.000 C 18.220 115.136,18.400 116.317,18.400 117.624 C 18.400 118.931,18.557 120.000,18.748 120.000 C 18.940 120.000,19.215 120.893,19.360 121.984 C 19.505 123.075,19.798 124.075,20.012 124.207 C 20.225 124.339,20.400 124.797,20.400 125.224 C 20.400 125.651,20.558 126.000,20.750 126.000 C 20.943 126.000,21.200 126.495,21.323 127.100 C 21.445 127.705,21.917 128.597,22.373 129.083 C 22.828 129.569,23.200 130.153,23.200 130.380 C 23.200 130.607,23.740 131.309,24.400 131.940 C 25.060 132.571,25.604 133.247,25.609 133.443 C 25.614 133.639,26.289 134.373,27.109 135.074 C 27.929 135.775,29.230 136.897,30.000 137.568 C 30.770 138.239,31.625 138.790,31.900 138.794 C 32.175 138.797,32.400 138.938,32.400 139.106 C 32.400 139.427,35.320 140.800,36.003 140.800 C 36.221 140.800,36.400 140.980,36.400 141.200 C 36.400 141.420,36.749 141.600,37.176 141.600 C 37.603 141.600,38.059 141.772,38.189 141.982 C 38.318 142.191,39.499 142.485,40.812 142.633 C 42.125 142.782,43.200 143.060,43.200 143.252 C 43.200 143.704,53.886 143.708,54.165 143.256 C 54.282 143.067,55.379 142.795,56.602 142.651 C 58.610 142.415,60.259 141.826,60.800 141.150 C 60.910 141.013,61.561 140.779,62.246 140.630 C 62.931 140.482,63.869 140.009,64.329 139.580 C 64.790 139.151,65.433 138.800,65.760 138.800 C 66.086 138.800,66.446 138.650,66.559 138.467 C 67.963 136.194,71.091 135.777,72.800 137.634 C 73.130 137.992,73.850 138.426,74.400 138.597 C 74.950 138.768,75.490 139.038,75.600 139.196 C 75.925 139.665,82.355 143.600,82.796 143.600 C 83.018 143.600,83.200 143.777,83.200 143.992 C 83.200 144.208,83.650 144.498,84.200 144.636 C 84.750 144.774,85.200 145.019,85.200 145.180 C 85.200 145.342,85.875 145.817,86.700 146.237 C 87.525 146.657,88.470 147.289,88.800 147.643 C 89.130 147.996,89.850 148.427,90.400 148.600 C 90.950 148.773,91.670 149.223,92.000 149.600 C 92.330 149.977,93.050 150.426,93.600 150.598 C 94.150 150.769,95.109 151.335,95.731 151.855 C 96.353 152.375,97.118 152.800,97.431 152.800 C 97.744 152.800,98.000 152.980,98.000 153.200 C 98.000 153.420,98.270 153.600,98.600 153.600 C 98.930 153.600,99.200 153.777,99.200 153.992 C 99.200 154.208,99.650 154.498,100.200 154.636 C 100.750 154.774,101.200 155.047,101.200 155.243 C 101.200 155.440,101.470 155.600,101.800 155.600 C 102.130 155.600,102.400 155.768,102.400 155.973 C 102.400 156.178,102.791 156.470,103.269 156.622 C 103.747 156.774,104.509 157.243,104.961 157.664 C 105.414 158.086,106.193 158.534,106.692 158.659 C 107.191 158.784,107.600 159.031,107.600 159.208 C 107.600 159.384,108.395 159.914,109.368 160.384 C 110.340 160.855,111.337 161.483,111.584 161.781 C 111.831 162.078,112.475 162.433,113.016 162.568 C 113.557 162.704,114.000 162.992,114.000 163.208 C 114.000 163.423,114.270 163.600,114.600 163.600 C 114.930 163.600,115.200 163.777,115.200 163.992 C 115.200 164.208,115.650 164.498,116.200 164.636 C 116.750 164.774,117.200 165.047,117.200 165.243 C 117.200 165.440,117.470 165.600,117.800 165.600 C 118.130 165.600,118.400 165.777,118.400 165.992 C 118.400 166.208,118.850 166.498,119.400 166.636 C 119.950 166.774,120.400 167.019,120.400 167.180 C 120.400 167.342,121.075 167.817,121.900 168.237 C 122.725 168.657,123.490 169.094,123.600 169.209 C 124.159 169.794,126.047 170.800,126.586 170.800 C 126.924 170.800,127.200 170.969,127.200 171.175 C 127.200 171.381,128.100 172.040,129.200 172.639 C 130.300 173.237,131.200 173.859,131.200 174.020 C 131.200 174.181,131.650 174.426,132.200 174.564 C 132.750 174.702,133.200 174.992,133.200 175.208 C 133.200 175.423,133.470 175.600,133.800 175.600 C 134.130 175.600,134.400 175.777,134.400 175.992 C 134.400 176.208,134.850 176.498,135.400 176.636 C 135.950 176.774,136.400 177.026,136.400 177.197 C 136.400 177.367,136.715 177.612,137.100 177.742 C 137.850 177.993,139.271 178.846,139.600 179.240 C 139.710 179.372,140.176 179.678,140.635 179.919 C 141.504 180.377,141.600 184.806,140.747 185.133 C 140.556 185.207,140.400 186.116,140.400 187.153 C 140.400 188.191,140.177 189.263,139.904 189.536 C 139.191 190.249,139.187 208.546,139.900 209.260 C 140.175 209.535,140.400 210.444,140.400 211.280 C 140.400 212.116,140.559 212.800,140.753 212.800 C 140.948 212.800,141.232 213.968,141.385 215.396 C 141.538 216.823,141.829 218.094,142.031 218.219 C 142.234 218.345,142.400 218.977,142.400 219.624 C 142.400 220.271,142.580 220.800,142.800 220.800 C 143.020 220.800,143.200 221.340,143.200 222.000 C 143.200 222.783,142.998 223.200,142.618 223.200 C 142.298 223.200,141.586 223.650,141.036 224.200 C 140.486 224.750,139.856 225.200,139.636 225.200 C 139.416 225.200,138.786 225.650,138.236 226.200 C 137.686 226.750,137.091 227.200,136.914 227.200 C 136.737 227.200,136.107 227.650,135.513 228.200 C 134.920 228.750,134.241 229.200,134.005 229.200 C 133.768 229.200,133.471 229.470,133.345 229.800 C 133.218 230.130,132.941 230.400,132.729 230.400 C 132.516 230.400,132.092 230.625,131.785 230.900 C 130.462 232.087,130.009 232.400,129.617 232.400 C 129.388 232.400,129.200 232.568,129.200 232.773 C 129.200 232.978,128.885 233.246,128.500 233.369 C 128.115 233.491,127.080 234.220,126.200 234.988 C 125.320 235.756,124.375 236.388,124.100 236.392 C 123.825 236.397,123.600 236.584,123.600 236.810 C 123.600 237.035,123.145 237.393,122.590 237.604 C 122.034 237.815,121.475 238.261,121.347 238.594 C 121.219 238.927,120.909 239.203,120.657 239.206 C 120.406 239.210,119.591 239.750,118.846 240.406 C 118.101 241.063,117.286 241.600,117.034 241.600 C 116.782 241.600,116.317 241.960,116.000 242.400 C 115.683 242.840,115.238 243.203,115.012 243.206 C 114.785 243.210,114.025 243.705,113.323 244.306 C 111.081 246.225,110.222 246.865,109.300 247.302 C 108.805 247.536,108.400 247.880,108.400 248.064 C 108.400 248.249,108.130 248.400,107.800 248.400 C 107.470 248.400,107.200 248.568,107.200 248.773 C 107.200 248.978,106.872 249.250,106.471 249.378 C 106.069 249.505,105.394 249.924,104.971 250.308 C 104.547 250.693,103.390 251.634,102.400 252.401 C 101.410 253.167,100.540 253.930,100.467 254.097 C 100.393 254.264,100.078 254.400,99.767 254.400 C 99.455 254.400,99.200 254.568,99.200 254.773 C 99.200 254.978,98.872 255.250,98.471 255.378 C 98.069 255.505,97.394 255.924,96.971 256.308 C 96.547 256.692,95.665 257.351,95.010 257.771 C 93.589 258.685,93.039 259.111,91.744 260.300 C 91.205 260.795,90.620 261.200,90.444 261.200 C 90.268 261.200,89.601 261.650,88.962 262.200 C 88.323 262.749,87.673 263.199,87.518 263.200 C 87.363 263.200,86.808 263.628,86.284 264.152 C 85.761 264.676,84.942 265.228,84.466 265.379 C 83.990 265.530,83.600 265.822,83.600 266.027 C 83.600 266.232,83.396 266.400,83.146 266.400 C 82.896 266.400,82.275 266.850,81.765 267.400 C 81.255 267.950,80.693 268.400,80.515 268.400 C 80.337 268.400,79.707 268.850,79.113 269.400 C 77.785 270.631,77.644 270.634,76.359 269.442 C 74.171 267.414,66.800 263.200,65.440 263.200 C 65.088 263.200,64.800 263.020,64.800 262.800 C 64.800 262.580,64.451 262.400,64.024 262.400 C 63.597 262.400,63.146 262.237,63.023 262.037 C 62.900 261.838,61.900 261.551,60.800 261.400 C 59.700 261.249,58.700 260.962,58.577 260.763 C 58.454 260.563,57.553 260.400,56.576 260.400 C 55.599 260.400,54.800 260.220,54.800 260.000 C 54.800 259.751,52.541 259.600,48.824 259.600 C 45.271 259.600,42.747 259.762,42.600 260.000 C 42.464 260.220,41.643 260.400,40.776 260.400 C 39.909 260.400,39.200 260.555,39.200 260.744 C 39.200 260.934,38.269 261.199,37.131 261.334 C 35.992 261.468,34.876 261.764,34.651 261.989 C 34.425 262.215,33.916 262.400,33.520 262.400 C 33.124 262.400,32.800 262.580,32.800 262.800 C 32.800 263.020,32.512 263.200,32.160 263.200 C 31.473 263.200,28.729 264.386,28.400 264.825 C 28.290 264.972,27.795 265.219,27.300 265.373 C 26.805 265.528,26.400 265.822,26.400 266.027 C 26.400 266.232,26.130 266.400,25.800 266.400 C 25.470 266.400,25.200 266.580,25.200 266.800 C 25.200 267.020,24.959 267.200,24.664 267.200 C 23.468 267.200,14.400 276.025,14.400 277.189 C 14.400 277.415,14.223 277.600,14.008 277.600 C 13.792 277.600,13.502 278.050,13.364 278.600 C 13.226 279.150,12.993 279.600,12.846 279.600 C 12.699 279.600,12.224 280.408,11.790 281.396 C 11.355 282.384,10.865 283.194,10.700 283.196 C 10.535 283.198,10.400 283.449,10.400 283.754 C 10.400 284.059,10.131 284.824,9.802 285.454 C 9.474 286.084,9.204 287.005,9.202 287.500 C 9.201 287.995,9.020 288.400,8.800 288.400 C 8.580 288.400,8.400 288.814,8.400 289.320 C 8.400 289.826,8.221 290.419,8.001 290.639 C 7.782 290.858,7.485 292.694,7.342 294.719 C 7.198 296.743,6.927 298.400,6.740 298.400 C 6.296 298.400,6.296 304.688,6.740 304.963 C 6.927 305.078,7.188 306.841,7.320 308.880 C 7.452 310.919,7.749 312.650,7.980 312.727 C 8.211 312.804,8.400 313.281,8.400 313.788 C 8.400 314.294,8.669 315.224,8.998 315.854 C 9.326 316.484,9.596 317.405,9.598 317.900 C 9.599 318.395,9.738 318.800,9.906 318.800 C 10.227 318.800,11.600 321.720,11.600 322.403 C 11.600 322.621,11.780 322.800,12.000 322.800 C 12.220 322.800,12.400 323.070,12.400 323.400 C 12.400 323.730,12.568 324.000,12.773 324.000 C 12.978 324.000,13.274 324.405,13.430 324.900 C 13.587 325.395,14.049 326.091,14.457 326.447 C 14.866 326.803,15.200 327.283,15.200 327.514 C 15.200 328.056,21.829 334.800,22.361 334.800 C 22.582 334.800,23.205 335.205,23.744 335.700 C 25.389 337.211,25.901 337.566,27.480 338.297 C 28.316 338.684,29.090 339.099,29.200 339.221 C 29.588 339.649,32.329 340.800,32.960 340.800 C 33.312 340.800,33.600 340.980,33.600 341.200 C 33.600 341.420,33.949 341.600,34.376 341.600 C 34.803 341.600,35.256 341.767,35.383 341.972 C 35.509 342.177,36.645 342.455,37.906 342.592 C 39.168 342.728,40.513 343.010,40.895 343.220 C 41.277 343.429,42.852 343.600,44.395 343.600 C 45.998 343.600,47.200 343.771,47.200 344.000 C 47.200 344.522,50.278 344.522,50.600 344.000 C 50.736 343.780,52.187 343.600,53.824 343.600 C 55.461 343.600,56.800 343.441,56.800 343.247 C 56.800 343.052,57.968 342.768,59.396 342.615 C 60.823 342.462,62.094 342.171,62.219 341.969 C 62.345 341.766,62.797 341.600,63.224 341.600 C 63.651 341.600,64.000 341.420,64.000 341.200 C 64.000 340.980,64.269 340.800,64.597 340.800 C 65.392 340.800,68.400 339.485,68.400 339.137 C 68.400 338.987,68.940 338.745,69.600 338.600 C 70.260 338.455,70.800 338.171,70.800 337.968 C 70.800 337.766,71.070 337.600,71.400 337.600 C 71.730 337.600,72.000 337.432,72.000 337.227 C 72.000 337.022,72.315 336.753,72.700 336.629 C 73.085 336.506,73.923 335.954,74.562 335.402 C 75.201 334.851,75.843 334.400,75.989 334.400 C 76.393 334.400,80.895 329.950,81.800 328.656 C 82.240 328.026,82.825 327.274,83.100 326.984 C 83.375 326.694,83.600 326.264,83.600 326.029 C 83.600 325.793,83.750 325.600,83.934 325.600 C 84.317 325.600,87.600 319.222,87.600 318.479 C 87.600 318.210,87.763 317.677,87.963 317.295 C 89.470 314.406,91.218 298.400,90.025 298.400 C 89.772 298.400,89.593 297.387,89.583 295.900 C 89.573 294.525,89.387 292.590,89.170 291.600 C 88.952 290.610,88.666 289.031,88.534 288.091 C 88.402 287.151,88.138 286.285,87.947 286.167 C 87.247 285.735,87.595 283.780,88.477 283.188 C 88.959 282.865,89.777 282.195,90.295 281.700 C 90.813 281.205,91.400 280.800,91.600 280.800 C 91.800 280.800,92.414 280.350,92.964 279.800 C 93.514 279.250,94.124 278.800,94.320 278.800 C 94.515 278.800,95.199 278.350,95.838 277.800 C 96.477 277.251,97.122 276.801,97.271 276.800 C 97.421 276.800,97.781 276.572,98.071 276.294 C 98.362 276.016,99.950 274.804,101.600 273.600 C 103.250 272.396,104.838 271.184,105.129 270.906 C 105.419 270.628,105.779 270.400,105.929 270.400 C 106.078 270.399,106.723 269.949,107.362 269.400 C 108.001 268.850,108.631 268.400,108.762 268.400 C 108.893 268.399,109.490 267.994,110.090 267.500 C 110.689 267.005,111.823 266.150,112.608 265.600 C 113.394 265.050,114.587 264.105,115.261 263.500 C 115.934 262.895,116.696 262.400,116.954 262.400 C 117.212 262.400,117.683 262.040,118.000 261.600 C 118.317 261.160,118.725 260.800,118.905 260.800 C 119.197 260.800,123.017 258.116,124.286 257.020 C 125.671 255.823,126.001 255.600,126.383 255.600 C 126.612 255.600,126.800 255.432,126.800 255.227 C 126.800 255.022,127.115 254.753,127.500 254.629 C 127.885 254.505,128.830 253.862,129.600 253.200 C 130.370 252.538,131.315 251.895,131.700 251.771 C 132.085 251.647,132.400 251.374,132.400 251.163 C 132.400 250.953,132.855 250.607,133.410 250.396 C 133.966 250.185,134.525 249.739,134.653 249.406 C 134.781 249.073,135.117 248.800,135.400 248.800 C 135.684 248.800,136.493 248.260,137.200 247.600 C 137.907 246.940,138.696 246.400,138.954 246.400 C 139.212 246.400,139.683 246.040,140.000 245.600 C 140.317 245.160,140.725 244.800,140.905 244.800 C 141.086 244.800,142.261 244.043,143.517 243.118 C 145.934 241.337,145.934 241.336,147.800 239.790 C 148.460 239.243,149.315 238.694,149.700 238.571 C 150.085 238.447,150.400 238.178,150.400 237.973 C 150.400 237.768,150.670 237.600,151.000 237.600 C 151.330 237.600,151.600 237.459,151.600 237.286 C 151.600 235.887,153.970 235.637,155.274 236.899 C 156.013 237.614,157.155 238.543,157.809 238.963 C 158.464 239.383,159.144 239.968,159.320 240.263 C 159.496 240.558,159.991 240.800,160.420 240.800 C 160.849 240.800,161.200 240.953,161.200 241.140 C 161.200 241.590,165.883 244.357,167.182 244.674 C 167.742 244.811,168.290 245.030,168.400 245.162 C 168.886 245.741,170.493 246.405,171.983 246.644 C 172.872 246.786,173.600 247.039,173.600 247.206 C 173.600 247.373,174.095 247.609,174.700 247.730 C 175.305 247.851,176.610 248.134,177.600 248.358 C 178.590 248.582,180.255 248.773,181.300 248.783 C 182.345 248.792,183.200 248.980,183.200 249.200 C 183.200 249.420,183.920 249.600,184.800 249.600 L 186.400 249.600 186.400 251.200 C 186.400 252.080,186.557 252.800,186.749 252.800 C 186.940 252.800,187.227 255.139,187.385 257.999 C 187.543 260.858,187.836 263.299,188.036 263.422 C 188.236 263.546,188.400 264.807,188.400 266.224 C 188.400 267.641,188.557 268.800,188.749 268.800 C 188.941 268.800,189.227 271.320,189.386 274.400 C 189.545 277.480,189.838 280.000,190.037 280.000 C 190.237 280.000,190.400 281.159,190.400 282.576 C 190.400 283.993,190.560 285.252,190.755 285.372 C 190.950 285.493,191.241 287.935,191.400 290.800 C 191.559 293.665,191.850 296.107,192.045 296.228 C 192.240 296.348,192.400 297.607,192.400 299.024 C 192.400 300.441,192.552 301.600,192.739 301.600 C 193.035 301.600,193.389 304.814,194.245 315.300 C 194.366 316.785,194.604 318.000,194.773 318.000 C 195.155 318.000,195.634 324.385,195.337 325.518 C 195.209 326.009,194.244 326.788,192.961 327.438 C 191.772 328.039,190.800 328.681,190.800 328.865 C 190.800 329.049,190.601 329.200,190.358 329.200 C 189.239 329.200,182.400 335.629,182.400 336.681 C 182.400 336.966,182.223 337.200,182.008 337.200 C 181.792 337.200,181.502 337.650,181.364 338.200 C 181.226 338.750,180.953 339.200,180.757 339.200 C 180.560 339.200,180.400 339.470,180.400 339.800 C 180.400 340.130,180.228 340.400,180.018 340.400 C 179.808 340.400,179.518 341.030,179.374 341.800 C 179.229 342.570,178.951 343.200,178.755 343.200 C 178.560 343.200,178.400 343.524,178.400 343.920 C 178.400 344.316,178.212 344.828,177.982 345.058 C 177.752 345.288,177.456 346.764,177.324 348.338 C 177.192 349.912,176.930 351.200,176.742 351.200 C 176.554 351.200,176.400 352.820,176.400 354.800 C 176.400 356.780,176.555 358.400,176.745 358.400 C 176.935 358.400,177.186 359.587,177.302 361.037 C 177.419 362.487,177.713 363.873,177.957 364.117 C 178.201 364.361,178.400 364.974,178.400 365.480 C 178.400 365.986,178.580 366.400,178.800 366.400 C 179.020 366.400,179.200 366.687,179.200 367.038 C 179.200 367.655,180.344 369.992,180.846 370.400 C 180.981 370.510,181.224 371.023,181.386 371.539 C 181.795 372.851,189.359 380.324,190.590 380.633 C 191.145 380.773,191.600 381.020,191.600 381.183 C 191.600 381.446,192.760 382.003,196.000 383.295 C 196.550 383.514,197.332 383.864,197.737 384.073 C 198.142 384.282,199.717 384.557,201.237 384.684 C 202.757 384.812,204.000 385.070,204.000 385.258 C 204.000 385.446,205.710 385.600,207.800 385.600 C 209.890 385.600,211.600 385.446,211.600 385.258 C 211.600 385.070,212.903 384.807,214.495 384.673 C 216.087 384.540,217.452 384.244,217.528 384.015 C 217.604 383.787,218.102 383.600,218.633 383.600 C 219.165 383.600,219.600 383.420,219.600 383.200 C 219.600 382.980,219.798 382.800,220.040 382.800 C 220.531 382.800,223.289 381.570,223.600 381.212 C 223.710 381.085,224.309 380.657,224.931 380.261 C 228.916 377.723,235.600 369.784,235.600 367.588 C 235.600 367.368,235.808 366.787,236.062 366.295 C 236.317 365.803,236.692 365.063,236.896 364.651 C 237.101 364.239,237.368 362.934,237.490 361.751 C 237.612 360.568,237.867 359.600,238.056 359.600 C 238.245 359.600,238.400 357.260,238.400 354.400 C 238.400 351.200,238.246 349.200,238.000 349.200 C 237.780 349.200,237.600 348.681,237.600 348.046 C 237.600 346.824,236.423 342.738,235.974 342.400 C 235.827 342.290,235.570 341.750,235.401 341.200 C 234.546 338.415,228.886 331.740,225.622 329.667 C 225.060 329.310,224.510 328.920,224.400 328.800 C 223.984 328.345,219.902 326.400,219.363 326.400 C 219.053 326.400,218.800 326.237,218.800 326.038 C 218.800 325.838,217.900 325.551,216.800 325.400 C 215.700 325.249,214.800 324.962,214.800 324.762 C 214.800 324.563,214.560 324.400,214.266 324.400 C 212.734 324.400,211.742 322.240,211.224 317.778 C 210.945 315.370,210.561 312.140,210.372 310.600 C 210.183 309.060,209.851 306.180,209.635 304.200 C 209.419 302.220,209.129 299.790,208.991 298.800 C 208.854 297.810,208.642 295.740,208.522 294.200 C 208.402 292.660,208.176 291.310,208.019 291.200 C 207.754 291.014,207.011 284.029,206.540 277.300 C 206.428 275.705,206.198 274.400,206.029 274.400 C 205.859 274.400,205.587 272.645,205.424 270.500 C 205.261 268.355,205.055 266.060,204.967 265.400 C 204.448 261.516,203.940 257.378,203.618 254.400 C 203.415 252.530,203.159 250.301,203.048 249.448 C 202.812 247.622,203.253 247.049,205.199 246.660 C 206.851 246.330,208.800 245.511,208.800 245.147 C 208.800 245.005,209.430 244.771,210.200 244.626 C 210.970 244.482,211.600 244.192,211.600 243.982 C 211.600 243.772,211.870 243.600,212.200 243.600 C 212.530 243.600,212.800 243.420,212.800 243.200 C 212.800 242.980,213.076 242.800,213.414 242.800 C 214.252 242.800,216.327 241.472,218.256 239.700 C 218.795 239.205,219.415 238.800,219.634 238.800 C 220.114 238.800,226.684 232.260,227.804 230.668 C 229.555 228.176,229.891 227.914,230.746 228.371 C 231.187 228.607,231.904 228.800,232.340 228.800 C 232.776 228.800,233.193 228.935,233.267 229.100 C 233.472 229.561,235.848 230.800,236.528 230.800 C 236.861 230.800,237.193 230.935,237.267 231.100 C 237.449 231.511,240.290 232.800,241.014 232.800 C 241.336 232.800,241.600 232.980,241.600 233.200 C 241.600 233.420,241.960 233.600,242.400 233.600 C 242.840 233.600,243.200 233.766,243.200 233.968 C 243.200 234.171,243.785 234.463,244.500 234.618 C 245.215 234.774,245.890 235.022,246.000 235.171 C 246.326 235.612,249.068 236.800,249.760 236.800 C 250.112 236.800,250.400 236.946,250.400 237.125 C 250.400 237.304,251.070 237.709,251.889 238.025 C 252.707 238.341,254.338 239.095,255.513 239.700 C 256.687 240.305,257.997 240.800,258.424 240.800 C 258.851 240.800,259.200 240.938,259.200 241.106 C 259.200 241.427,262.120 242.800,262.803 242.800 C 263.021 242.800,263.200 242.951,263.200 243.135 C 263.200 243.319,264.190 243.807,265.400 244.218 C 266.610 244.629,267.600 245.108,267.600 245.283 C 267.600 245.457,267.960 245.600,268.400 245.600 C 268.840 245.600,269.200 245.766,269.200 245.968 C 269.200 246.171,269.785 246.463,270.500 246.618 C 271.215 246.773,272.250 247.215,272.800 247.600 C 273.350 247.985,274.385 248.427,275.100 248.582 C 275.815 248.737,276.401 248.984,276.401 249.132 C 276.402 249.279,277.257 249.736,278.301 250.146 C 281.886 251.555,282.400 251.796,282.400 252.066 C 282.400 252.215,282.976 252.463,283.680 252.618 C 286.073 253.143,288.261 256.497,286.800 257.400 C 286.283 257.719,286.265 270.565,286.780 271.505 C 286.990 271.887,287.273 273.235,287.409 274.500 C 287.546 275.765,287.825 276.800,288.029 276.800 C 288.233 276.800,288.400 277.250,288.400 277.800 C 288.400 278.350,288.557 278.800,288.749 278.800 C 288.941 278.800,289.213 279.520,289.354 280.400 C 289.494 281.280,289.750 282.000,289.923 282.000 C 290.095 282.000,290.570 282.810,290.978 283.800 C 291.387 284.790,291.873 285.600,292.060 285.600 C 292.247 285.600,292.400 285.870,292.400 286.200 C 292.400 286.530,292.580 286.800,292.800 286.800 C 293.020 286.800,293.200 287.062,293.200 287.382 C 293.200 287.702,293.650 288.414,294.200 288.964 C 294.750 289.514,295.200 290.152,295.200 290.382 C 295.200 290.612,295.386 290.800,295.613 290.800 C 295.839 290.800,296.140 291.098,296.280 291.463 C 296.587 292.264,301.178 296.800,301.681 296.800 C 301.876 296.800,302.486 297.250,303.036 297.800 C 303.586 298.350,304.279 298.800,304.575 298.800 C 304.872 298.800,305.212 299.054,305.331 299.365 C 305.450 299.675,306.190 300.161,306.974 300.445 C 307.758 300.729,308.400 301.105,308.400 301.280 C 308.400 301.456,308.670 301.600,309.000 301.600 C 309.330 301.600,309.600 301.760,309.600 301.955 C 309.600 302.151,310.230 302.429,311.000 302.574 C 311.770 302.718,312.400 303.008,312.400 303.218 C 312.400 303.428,312.850 303.600,313.400 303.600 C 313.950 303.600,314.400 303.767,314.400 303.971 C 314.400 304.175,315.392 304.466,316.605 304.618 C 317.818 304.770,318.909 305.052,319.029 305.247 C 319.149 305.441,319.946 305.600,320.800 305.600 C 321.654 305.600,322.464 305.780,322.600 306.000 C 322.932 306.537,333.600 306.537,333.600 306.000 C 333.600 305.780,334.500 305.600,335.600 305.600 C 336.700 305.600,337.600 305.443,337.600 305.252 C 337.600 305.060,338.516 304.782,339.635 304.633 C 340.754 304.485,341.969 304.207,342.335 304.015 C 342.701 303.824,343.720 303.370,344.600 303.007 C 346.700 302.139,348.152 301.449,348.400 301.201 C 348.510 301.090,349.275 300.657,350.100 300.237 C 350.925 299.817,351.600 299.322,351.600 299.137 C 351.600 298.952,351.831 298.800,352.113 298.800 C 352.806 298.800,354.219 297.702,358.102 294.144 C 358.376 293.893,359.189 292.993,359.908 292.144 C 360.627 291.295,361.749 289.970,362.401 289.200 C 363.054 288.430,363.590 287.575,363.594 287.300 C 363.597 287.025,363.768 286.800,363.973 286.800 C 364.178 286.800,364.472 286.395,364.627 285.900 C 364.781 285.405,365.028 284.910,365.174 284.800 C 365.576 284.497,367.600 280.051,367.600 279.469 C 367.600 279.189,367.750 278.789,367.933 278.580 C 370.319 275.853,371.238 260.617,369.439 253.600 C 369.072 252.170,368.668 250.595,368.539 250.100 C 368.411 249.605,368.148 249.200,367.953 249.200 C 367.759 249.200,367.600 248.888,367.600 248.506 C 367.600 247.719,365.663 243.675,364.901 242.871 C 364.626 242.581,364.400 242.086,364.400 241.771 C 364.400 241.457,364.232 241.200,364.027 241.200 C 363.822 241.200,363.553 240.885,363.429 240.500 C 362.985 239.116,358.831 234.356,356.011 232.000 C 355.089 231.230,353.962 230.285,353.506 229.900 C 353.051 229.515,352.435 229.200,352.139 229.200 C 351.842 229.200,351.600 229.048,351.600 228.863 C 351.600 228.678,350.925 228.183,350.100 227.763 C 349.275 227.343,348.510 226.901,348.400 226.779 C 348.216 226.576,346.495 225.773,344.000 224.726 C 343.450 224.495,342.671 224.138,342.269 223.931 C 341.868 223.724,340.647 223.449,339.558 223.320 C 338.468 223.191,337.481 222.931,337.365 222.743 C 337.248 222.554,336.274 222.400,335.200 222.400 C 334.126 222.400,333.136 222.220,333.000 222.000 C 332.859 221.771,330.804 221.600,328.200 221.600 C 325.596 221.600,323.541 221.771,323.400 222.000 C 323.264 222.220,322.263 222.400,321.176 222.400 C 320.089 222.400,319.200 222.555,319.200 222.744 C 319.200 222.934,318.269 223.199,317.131 223.334 C 315.992 223.468,314.876 223.764,314.651 223.989 C 314.425 224.215,313.916 224.400,313.520 224.400 C 313.124 224.400,312.800 224.580,312.800 224.800 C 312.800 225.020,312.512 225.200,312.160 225.200 C 311.473 225.200,308.729 226.386,308.400 226.825 C 308.290 226.972,307.795 227.219,307.300 227.373 C 306.805 227.528,306.400 227.822,306.400 228.027 C 306.400 228.232,306.130 228.400,305.800 228.400 C 305.470 228.400,305.200 228.580,305.200 228.800 C 305.200 229.020,304.949 229.200,304.642 229.200 C 304.336 229.200,303.507 229.740,302.800 230.400 C 302.093 231.060,301.399 231.605,301.258 231.611 C 300.795 231.630,297.827 234.558,296.403 236.400 C 294.260 239.172,294.017 239.377,293.494 238.854 C 293.244 238.604,292.716 238.400,292.320 238.400 C 291.924 238.400,291.600 238.228,291.600 238.018 C 291.600 237.808,290.970 237.518,290.200 237.374 C 289.430 237.229,288.800 236.995,288.800 236.853 C 288.800 236.711,288.215 236.348,287.500 236.045 C 286.785 235.742,285.094 234.978,283.743 234.347 C 282.391 233.716,281.086 233.200,280.843 233.200 C 280.599 233.200,280.400 233.020,280.400 232.800 C 280.400 232.580,280.051 232.400,279.624 232.400 C 279.197 232.400,278.745 232.234,278.619 232.031 C 278.494 231.828,277.853 231.543,277.195 231.399 C 276.538 231.255,276.000 230.971,276.000 230.768 C 276.000 230.566,275.640 230.400,275.200 230.400 C 274.760 230.400,274.400 230.220,274.400 230.000 C 274.400 229.780,274.131 229.600,273.803 229.600 C 272.975 229.600,270.000 228.278,270.000 227.910 C 270.000 227.745,269.280 227.494,268.400 227.354 C 267.520 227.213,266.800 226.941,266.800 226.749 C 266.800 226.557,266.530 226.400,266.200 226.400 C 265.870 226.400,265.600 226.234,265.600 226.032 C 265.600 225.829,265.015 225.537,264.300 225.382 C 263.585 225.226,262.910 224.978,262.800 224.829 C 262.474 224.388,259.732 223.200,259.040 223.200 C 258.688 223.200,258.400 223.020,258.400 222.800 C 258.400 222.580,258.040 222.400,257.600 222.400 C 257.160 222.400,256.800 222.220,256.800 222.000 C 256.800 221.780,256.575 221.596,256.300 221.591 C 256.025 221.586,254.720 221.050,253.400 220.400 C 252.080 219.750,250.685 219.214,250.300 219.209 C 249.915 219.204,249.600 219.054,249.600 218.875 C 249.600 218.696,248.930 218.291,248.111 217.975 C 247.293 217.659,245.662 216.905,244.487 216.300 C 243.313 215.695,242.003 215.200,241.576 215.200 C 241.149 215.200,240.800 215.060,240.800 214.890 C 240.800 214.719,239.996 214.224,239.014 213.790 L 237.227 213.000 237.469 209.400 C 237.601 207.420,237.865 205.497,238.055 205.126 C 238.541 204.178,238.492 194.904,238.000 194.600 C 237.780 194.464,237.600 193.430,237.600 192.302 C 237.600 190.338,236.725 185.884,236.008 184.200 C 235.821 183.760,235.347 182.455,234.955 181.300 C 234.563 180.145,234.098 179.200,233.921 179.200 C 233.744 179.200,233.600 178.945,233.600 178.632 C 233.600 178.058,232.406 175.568,231.954 175.200 C 231.819 175.090,231.581 174.595,231.427 174.100 C 231.272 173.605,230.978 173.200,230.773 173.200 C 230.568 173.200,230.400 173.001,230.400 172.758 C 230.400 172.007,222.909 163.200,222.271 163.200 C 222.192 163.200,221.270 162.390,220.222 161.400 C 219.174 160.410,218.168 159.600,217.987 159.600 C 217.805 159.600,217.419 159.375,217.129 159.100 C 216.067 158.096,213.643 156.400,213.269 156.400 C 212.669 156.400,212.364 155.214,212.770 154.455 C 212.973 154.078,213.703 152.066,214.393 149.984 C 215.084 147.903,215.805 145.840,215.996 145.400 C 216.187 144.960,216.639 143.610,217.000 142.400 C 217.361 141.190,217.808 139.840,217.991 139.400 C 218.970 137.059,219.600 135.096,219.600 134.392 C 219.600 133.956,219.780 133.600,220.000 133.600 C 220.220 133.600,220.400 133.291,220.400 132.913 C 220.400 132.297,221.137 129.953,222.008 127.800 C 222.186 127.360,222.642 126.010,223.021 124.800 C 223.399 123.590,223.851 122.240,224.024 121.800 C 224.196 121.360,224.638 120.100,225.004 119.000 C 225.371 117.900,225.835 116.687,226.035 116.305 C 226.236 115.923,226.400 115.278,226.400 114.872 C 226.400 114.466,226.535 113.998,226.700 113.833 C 226.865 113.668,227.015 113.413,227.033 113.267 C 227.121 112.547,227.743 110.554,227.990 110.200 C 228.143 109.980,228.582 108.720,228.965 107.400 C 229.348 106.080,229.820 104.640,230.015 104.200 C 230.210 103.760,230.659 102.410,231.013 101.200 C 231.368 99.990,231.825 98.687,232.029 98.305 C 232.233 97.923,232.406 97.383,232.413 97.105 C 232.464 95.165,233.895 94.605,239.144 94.470 C 241.925 94.399,244.371 94.174,244.580 93.970 C 244.789 93.767,245.554 93.600,246.280 93.600 C 247.006 93.600,247.600 93.444,247.600 93.254 C 247.600 93.064,248.378 92.802,249.330 92.672 C 250.281 92.541,251.766 92.080,252.630 91.647 C 253.493 91.214,254.740 90.603,255.400 90.290 C 257.781 89.160,259.399 88.187,260.041 87.500 C 260.400 87.115,260.859 86.800,261.060 86.800 C 262.695 86.800,270.186 77.709,272.268 73.200 C 274.792 67.734,275.600 65.110,275.600 62.378 C 275.600 61.316,275.780 60.336,276.000 60.200 C 276.221 60.064,276.400 58.270,276.400 56.200 C 276.400 54.130,276.221 52.336,276.000 52.200 C 275.780 52.064,275.600 51.228,275.600 50.342 C 275.600 48.569,274.377 43.478,273.900 43.267 C 273.735 43.193,273.600 42.823,273.600 42.443 C 273.600 41.655,271.045 36.314,270.289 35.523 C 270.015 35.235,269.464 34.491,269.065 33.869 C 267.570 31.534,264.388 28.139,262.065 26.399 C 261.331 25.850,260.489 25.175,260.194 24.900 C 259.899 24.625,259.479 24.400,259.262 24.400 C 259.045 24.400,258.807 24.265,258.733 24.100 C 258.522 23.625,253.769 21.200,253.049 21.200 C 252.692 21.200,252.400 21.020,252.400 20.800 C 252.400 20.580,252.051 20.400,251.624 20.400 C 251.197 20.400,250.739 20.225,250.607 20.012 C 250.475 19.798,249.470 19.504,248.375 19.359 C 247.279 19.213,246.285 18.938,246.167 18.747 C 246.049 18.556,245.164 18.400,244.200 18.400 C 243.236 18.400,242.336 18.220,242.200 18.000 C 242.059 17.771,240.004 17.600,237.400 17.600 C 234.796 17.600,232.741 17.771,232.600 18.000 M244.352 35.071 C 244.488 35.264,245.410 35.765,246.400 36.184 C 247.390 36.602,248.773 37.362,249.473 37.873 C 250.174 38.383,250.856 38.800,250.989 38.800 C 251.707 38.800,256.400 44.328,256.400 45.173 C 256.400 45.408,256.566 45.600,256.768 45.600 C 256.971 45.600,257.255 46.140,257.400 46.800 C 257.545 47.460,257.829 48.000,258.032 48.000 C 258.234 48.000,258.400 48.435,258.400 48.967 C 258.400 49.498,258.625 50.008,258.900 50.100 C 259.270 50.223,259.400 51.809,259.400 56.200 C 259.400 60.591,259.270 62.177,258.900 62.300 C 258.625 62.392,258.400 62.902,258.400 63.433 C 258.400 63.965,258.228 64.400,258.018 64.400 C 257.808 64.400,257.518 65.030,257.374 65.800 C 257.229 66.570,256.951 67.200,256.755 67.200 C 256.560 67.200,256.400 67.379,256.400 67.597 C 256.400 68.639,250.656 74.400,249.617 74.400 C 249.388 74.400,249.200 74.577,249.200 74.792 C 249.200 75.008,248.750 75.298,248.200 75.436 C 247.650 75.574,247.200 75.847,247.200 76.043 C 247.200 76.240,246.840 76.400,246.400 76.400 C 245.960 76.400,245.600 76.567,245.600 76.771 C 245.600 76.975,244.565 77.268,243.300 77.421 C 242.035 77.574,240.782 77.873,240.515 78.086 C 239.689 78.745,231.170 77.644,230.220 76.756 C 230.011 76.560,229.531 76.400,229.153 76.400 C 228.776 76.400,228.407 76.265,228.333 76.100 C 228.260 75.935,227.480 75.445,226.600 75.011 C 222.469 72.975,217.067 65.758,216.498 61.516 C 216.385 60.671,216.136 59.884,215.946 59.767 C 215.462 59.467,215.511 52.902,216.000 52.600 C 216.220 52.464,216.400 51.917,216.400 51.384 C 216.400 48.491,220.271 42.124,223.564 39.600 C 224.282 39.050,225.111 38.375,225.406 38.100 C 225.701 37.825,226.136 37.600,226.371 37.600 C 226.607 37.600,226.800 37.420,226.800 37.200 C 226.800 36.980,226.998 36.800,227.240 36.800 C 227.481 36.800,228.336 36.512,229.140 36.159 C 231.928 34.936,232.205 34.832,233.200 34.644 C 234.830 34.335,244.082 34.690,244.352 35.071 M53.133 99.231 C 53.207 99.434,53.702 99.600,54.233 99.600 C 54.765 99.600,55.200 99.777,55.200 99.992 C 55.200 100.208,55.650 100.498,56.200 100.636 C 56.750 100.774,57.200 101.037,57.200 101.221 C 57.200 101.404,57.740 101.874,58.400 102.264 C 59.060 102.654,59.600 103.202,59.600 103.483 C 59.600 103.764,59.960 104.218,60.400 104.493 C 60.840 104.768,61.200 105.192,61.200 105.437 C 61.200 105.681,61.650 106.727,62.200 107.762 C 63.258 109.751,63.720 116.400,62.800 116.400 C 62.580 116.400,62.400 116.850,62.400 117.400 C 62.400 117.950,62.256 118.400,62.080 118.400 C 61.905 118.400,61.547 118.985,61.285 119.700 C 60.545 121.721,57.201 124.984,55.408 125.434 C 54.854 125.573,54.400 125.847,54.400 126.043 C 54.400 126.240,53.950 126.400,53.400 126.400 C 52.850 126.400,52.400 126.580,52.400 126.800 C 52.400 127.039,50.867 127.200,48.600 127.200 C 46.333 127.200,44.800 127.039,44.800 126.800 C 44.800 126.580,44.545 126.400,44.232 126.400 C 43.204 126.400,41.063 125.087,38.563 122.924 C 36.343 121.003,34.401 116.249,34.398 112.725 C 34.396 110.693,35.469 106.747,36.100 106.467 C 36.265 106.393,36.400 106.111,36.400 105.839 C 36.400 104.494,42.230 99.600,43.832 99.600 C 44.145 99.600,44.400 99.431,44.400 99.224 C 44.400 98.403,52.836 98.409,53.133 99.231 M195.777 167.217 C 195.988 167.428,196.563 167.600,197.056 167.600 C 197.549 167.600,198.050 167.757,198.168 167.948 C 198.286 168.140,198.971 168.414,199.689 168.558 C 201.287 168.877,203.200 169.699,203.200 170.066 C 203.200 170.215,203.740 170.455,204.400 170.600 C 205.060 170.745,205.600 171.001,205.600 171.169 C 205.600 171.337,206.230 171.813,207.000 172.228 C 207.770 172.643,208.400 173.093,208.400 173.228 C 208.400 173.363,209.031 173.814,209.802 174.229 C 210.574 174.645,211.303 175.294,211.423 175.672 C 211.543 176.050,211.992 176.470,212.420 176.606 C 212.849 176.743,213.200 176.991,213.200 177.158 C 213.200 177.326,214.190 178.737,215.400 180.294 C 216.610 181.852,217.600 183.325,217.600 183.568 C 217.600 184.042,218.436 185.669,218.850 186.000 C 218.987 186.110,219.226 186.785,219.382 187.500 C 219.537 188.215,219.829 188.800,220.032 188.800 C 220.234 188.800,220.400 189.214,220.400 189.720 C 220.400 190.226,220.625 190.865,220.900 191.140 C 221.268 191.508,221.400 193.823,221.400 199.887 C 221.400 206.128,221.278 208.174,220.900 208.300 C 220.625 208.392,220.400 208.891,220.400 209.410 C 220.400 209.928,220.240 210.451,220.045 210.572 C 219.850 210.693,219.572 211.423,219.427 212.196 C 219.282 212.968,218.992 213.600,218.782 213.600 C 218.572 213.600,218.400 213.960,218.400 214.400 C 218.400 214.840,218.240 215.200,218.043 215.200 C 217.847 215.200,217.582 215.605,217.454 216.100 C 217.326 216.595,216.766 217.523,216.210 218.162 C 215.655 218.801,215.200 219.481,215.200 219.672 C 215.200 220.053,208.971 226.400,208.597 226.400 C 208.376 226.400,207.811 226.827,206.615 227.900 C 206.308 228.175,205.864 228.400,205.629 228.400 C 205.393 228.400,205.200 228.560,205.200 228.755 C 205.200 228.951,204.570 229.229,203.800 229.374 C 203.030 229.518,202.400 229.808,202.400 230.018 C 202.400 230.228,202.040 230.400,201.600 230.400 C 201.160 230.400,200.800 230.569,200.800 230.775 C 200.800 230.982,199.988 231.273,198.995 231.422 C 198.002 231.571,197.092 231.852,196.971 232.046 C 196.851 232.241,196.043 232.400,195.176 232.400 C 194.309 232.400,193.600 232.580,193.600 232.800 C 193.600 233.045,191.667 233.200,188.600 233.200 C 185.850 233.200,183.600 233.039,183.600 232.842 C 183.600 232.645,182.925 232.387,182.100 232.268 C 179.490 231.893,176.400 231.054,176.400 230.721 C 176.400 230.544,176.040 230.400,175.600 230.400 C 175.160 230.400,174.800 230.220,174.800 230.000 C 174.800 229.780,174.602 229.600,174.360 229.600 C 173.617 229.600,171.019 228.274,170.680 227.722 C 170.504 227.435,170.151 227.200,169.894 227.200 C 169.373 227.200,168.938 226.827,165.142 223.128 C 160.895 218.991,156.400 210.976,156.400 207.542 C 156.400 206.951,156.192 206.397,155.938 206.313 C 155.326 206.109,155.296 195.126,155.903 193.200 C 156.146 192.430,156.671 190.720,157.070 189.400 C 157.470 188.080,157.892 186.910,158.009 186.800 C 158.126 186.690,158.572 185.790,159.000 184.800 C 159.428 183.810,159.891 182.910,160.029 182.800 C 160.167 182.690,160.766 181.825,161.359 180.878 C 163.150 178.018,169.917 171.600,171.140 171.600 C 171.356 171.600,171.593 171.465,171.667 171.300 C 171.902 170.770,177.017 168.400,177.924 168.400 C 178.406 168.400,178.800 168.220,178.800 168.000 C 178.800 167.780,179.430 167.600,180.200 167.600 C 180.970 167.600,181.600 167.429,181.600 167.221 C 181.600 166.397,194.953 166.393,195.777 167.217 M335.119 239.157 C 335.200 239.401,335.702 239.600,336.233 239.600 C 336.765 239.600,337.200 239.757,337.200 239.949 C 337.200 240.141,337.920 240.413,338.800 240.554 C 339.680 240.694,340.400 240.959,340.400 241.142 C 340.400 241.324,341.075 241.817,341.900 242.237 C 343.285 242.942,349.200 248.421,349.200 248.999 C 349.200 249.139,349.636 249.826,350.169 250.527 C 350.702 251.227,351.261 252.295,351.412 252.900 C 351.563 253.505,351.847 254.000,352.043 254.000 C 352.240 254.000,352.400 254.360,352.400 254.800 C 352.400 255.240,352.562 255.600,352.759 255.600 C 352.957 255.600,353.245 256.861,353.400 258.402 C 353.555 259.942,353.843 261.303,354.041 261.425 C 354.499 261.709,354.515 266.400,354.057 266.400 C 353.869 266.400,353.594 267.697,353.447 269.283 C 353.300 270.868,353.039 272.263,352.869 272.383 C 352.470 272.662,351.200 275.384,351.200 275.960 C 351.200 276.202,351.064 276.400,350.898 276.400 C 350.731 276.400,350.342 276.985,350.033 277.700 C 349.352 279.273,343.755 284.970,342.499 285.369 C 342.004 285.526,341.600 285.822,341.600 286.027 C 341.600 286.232,341.330 286.400,341.000 286.400 C 340.670 286.400,340.400 286.572,340.400 286.782 C 340.400 286.992,339.768 287.282,338.996 287.427 C 338.223 287.572,337.493 287.850,337.372 288.045 C 337.251 288.240,336.818 288.400,336.410 288.400 C 336.001 288.400,335.592 288.625,335.500 288.900 C 335.375 289.275,333.551 289.400,328.200 289.400 C 322.849 289.400,321.025 289.275,320.900 288.900 C 320.808 288.625,320.399 288.400,319.990 288.400 C 319.582 288.400,319.145 288.234,319.019 288.031 C 318.894 287.828,318.253 287.543,317.595 287.399 C 316.938 287.255,316.400 286.971,316.400 286.768 C 316.400 286.566,316.212 286.400,315.983 286.400 C 315.369 286.400,311.456 283.431,309.925 281.803 C 307.895 279.646,307.600 279.267,307.600 278.817 C 307.600 278.588,307.461 278.400,307.291 278.400 C 307.121 278.400,306.628 277.725,306.195 276.900 C 305.762 276.075,305.311 275.310,305.194 275.200 C 303.879 273.971,302.329 264.800,302.895 261.600 C 303.031 260.830,303.266 259.343,303.417 258.295 C 303.569 257.247,303.836 256.301,304.011 256.193 C 304.187 256.085,304.452 255.277,304.600 254.398 C 304.749 253.519,305.034 252.800,305.235 252.800 C 305.436 252.800,305.600 252.530,305.600 252.200 C 305.600 251.870,305.759 251.600,305.953 251.600 C 306.148 251.600,306.412 251.285,306.542 250.900 C 307.280 248.701,310.707 244.999,314.000 242.843 C 315.210 242.050,316.290 241.291,316.400 241.155 C 316.510 241.019,317.050 240.782,317.600 240.629 C 318.150 240.475,319.050 240.157,319.600 239.921 C 321.874 238.947,322.253 238.820,323.400 238.647 C 325.726 238.296,334.966 238.698,335.119 239.157 M56.600 277.056 C 59.197 278.451,59.989 278.800,60.562 278.800 C 60.913 278.800,61.200 278.980,61.200 279.200 C 61.200 279.420,61.470 279.600,61.800 279.600 C 62.130 279.600,62.400 279.768,62.400 279.973 C 62.400 280.178,62.737 280.453,63.150 280.584 C 63.876 280.815,69.200 285.745,69.200 286.188 C 69.200 286.308,69.740 287.152,70.400 288.063 C 71.060 288.975,71.600 289.963,71.600 290.260 C 71.600 290.557,71.780 290.800,72.000 290.800 C 72.220 290.800,72.400 291.149,72.400 291.576 C 72.400 292.003,72.563 292.454,72.763 292.577 C 72.962 292.700,73.249 293.700,73.400 294.800 C 73.551 295.900,73.838 296.900,74.037 297.023 C 74.505 297.312,74.514 306.283,74.047 306.571 C 73.852 306.691,73.570 307.782,73.418 308.995 C 73.266 310.208,73.015 311.200,72.859 311.200 C 72.704 311.200,72.227 312.100,71.800 313.200 C 71.373 314.300,70.884 315.200,70.712 315.200 C 70.540 315.200,70.400 315.379,70.400 315.597 C 70.400 316.786,64.242 322.816,62.444 323.386 C 61.980 323.533,61.600 323.822,61.600 324.027 C 61.600 324.232,61.330 324.400,61.000 324.400 C 60.670 324.400,60.400 324.572,60.400 324.782 C 60.400 324.992,59.768 325.282,58.996 325.427 C 58.223 325.572,57.493 325.850,57.372 326.045 C 57.251 326.240,56.728 326.400,56.210 326.400 C 55.691 326.400,55.194 326.618,55.105 326.885 C 54.872 327.583,43.437 327.597,42.740 326.900 C 42.465 326.625,41.944 326.400,41.581 326.400 C 41.219 326.400,40.400 326.152,39.761 325.850 C 39.123 325.547,38.015 325.053,37.300 324.752 C 36.585 324.451,36.000 324.088,36.000 323.946 C 36.000 323.803,35.550 323.574,35.000 323.436 C 34.450 323.298,34.000 323.008,34.000 322.792 C 34.000 322.577,33.828 322.400,33.618 322.400 C 32.143 322.400,26.265 314.858,25.044 311.400 C 24.656 310.300,24.127 308.967,23.869 308.438 C 23.197 307.060,23.227 295.124,23.903 294.899 C 24.176 294.808,24.400 294.406,24.400 294.006 C 24.400 293.226,27.057 287.808,28.019 286.626 C 29.977 284.222,33.139 281.354,35.130 280.178 C 35.828 279.765,36.400 279.301,36.400 279.146 C 36.400 278.990,36.979 278.736,37.687 278.581 C 38.986 278.296,40.429 277.625,40.803 277.133 C 41.383 276.370,55.199 276.303,56.600 277.056 M212.347 341.064 C 212.486 341.261,213.345 341.750,214.255 342.152 C 216.000 342.920,218.400 344.885,218.400 345.544 C 218.400 345.758,218.535 345.993,218.700 346.067 C 221.862 347.472,222.581 358.883,219.700 361.929 C 219.425 362.219,219.200 362.631,219.200 362.844 C 219.200 363.376,216.165 366.400,215.631 366.400 C 215.394 366.400,215.200 366.566,215.200 366.768 C 215.200 366.971,214.662 367.255,214.005 367.399 C 213.347 367.543,212.706 367.828,212.581 368.031 C 212.455 368.234,211.913 368.400,211.376 368.400 C 210.839 368.400,210.400 368.580,210.400 368.800 C 210.400 369.304,205.041 369.333,204.095 368.834 C 202.962 368.236,200.500 367.200,200.213 367.200 C 199.595 367.200,195.623 362.840,194.564 361.000 C 193.331 358.855,192.776 350.392,193.823 349.685 C 194.055 349.528,194.475 348.831,194.756 348.136 C 195.367 346.626,199.390 342.400,200.217 342.400 C 200.538 342.400,200.800 342.220,200.800 342.000 C 200.800 341.780,201.160 341.600,201.600 341.600 C 202.040 341.600,202.400 341.431,202.400 341.225 C 202.400 340.429,211.791 340.276,212.347 341.064 " stroke="none" fill="#77bd1f" fill-rule="evenodd"></path><path id="path4" d="" stroke="none" fill="#00ff00" fill-rule="evenodd"></path></g></svg>